<svg width="24" height="20" viewBox="0 0 24 20" fill="none" xmlns="http://www.w3.org/2000/svg">
<path d="M4.50488 7.50293C5.05717 7.50293 5.50488 7.95064 5.50488 8.50292C7.13965 8.50292 8.64352 9.06332 9.8349 10.0024L12.0049 10.0029C13.3375 10.0029 14.5348 10.5822 15.3588 11.5026L18.5049 11.5029C20.4972 11.5029 22.2173 12.6682 23.021 14.3543C20.6562 17.4749 16.8268 19.5029 12.5049 19.5029C9.7142 19.5029 7.35466 18.8997 5.444 17.845C5.30557 18.2285 4.93727 18.5029 4.50488 18.5029H1.50488C0.952603 18.5029 0.504883 18.0552 0.504883 17.5029V8.50292C0.504883 7.95064 0.952603 7.50293 1.50488 7.50293H4.50488ZM5.50589 10.5029L5.50488 15.5249L5.55024 15.5574C7.34406 16.8178 9.683 17.5029 12.5049 17.5029C15.5089 17.5029 18.3035 16.3473 20.34 14.3735L20.4729 14.2399L20.3537 14.1395C19.8897 13.7765 19.3205 13.5513 18.7099 13.5098L18.5049 13.5029H16.3934C16.4664 13.8245 16.5049 14.1592 16.5049 14.5029V15.5029H7.50488V13.5029L14.2949 13.5019L14.2605 13.4234C13.88 12.6298 13.093 12.0682 12.1693 12.0082L12.0049 12.0029L9.07547 12.0028C8.16823 11.0774 6.90412 10.5032 5.50589 10.5029ZM3.50488 9.50292H2.50488V16.5029H3.50488V9.50292ZM17.5049 3.50293C19.1617 3.50293 20.5049 4.84607 20.5049 6.50293C20.5049 8.15978 19.1617 9.50292 17.5049 9.50292C15.848 9.50292 14.5049 8.15978 14.5049 6.50293C14.5049 4.84607 15.848 3.50293 17.5049 3.50293ZM17.5049 5.50293C16.9526 5.50293 16.5049 5.95064 16.5049 6.50293C16.5049 7.05521 16.9526 7.50293 17.5049 7.50293C18.0572 7.50293 18.5049 7.05521 18.5049 6.50293C18.5049 5.95064 18.0572 5.50293 17.5049 5.50293ZM10.5049 0.50293C12.1617 0.50293 13.5049 1.84607 13.5049 3.50293C13.5049 5.15978 12.1617 6.50293 10.5049 6.50293C8.84803 6.50293 7.50488 5.15978 7.50488 3.50293C7.50488 1.84607 8.84803 0.50293 10.5049 0.50293ZM10.5049 2.50293C9.9526 2.50293 9.5049 2.95064 9.5049 3.50293C9.5049 4.05521 9.9526 4.50293 10.5049 4.50293C11.0572 4.50293 11.5049 4.05521 11.5049 3.50293C11.5049 2.95064 11.0572 2.50293 10.5049 2.50293Z" fill="white"/>
</svg>
