<svg width="20" height="21" viewBox="0 0 20 21" fill="none" xmlns="http://www.w3.org/2000/svg">
<path d="M16.8612 9.65577C16.8612 15.0346 11.352 18.3484 10.2071 18.9795C10.1437 19.0145 10.0724 19.0329 9.99998 19.0329C9.92755 19.0329 9.8563 19.0145 9.79287 18.9795C8.64712 18.3484 3.13965 15.0346 3.13965 9.65577C3.13965 5.36779 5.71243 2.36621 10.0004 2.36621C14.2884 2.36621 16.8612 5.36779 16.8612 9.65577Z" stroke="white" stroke-width="1.4" stroke-linecap="round" stroke-linejoin="round"/>
<path d="M6.57031 9.22726C6.57031 10.137 6.93173 11.0096 7.57505 11.6529C8.21837 12.2962 9.0909 12.6576 10.0007 12.6576C10.9105 12.6576 11.783 12.2962 12.4263 11.6529C13.0697 11.0096 13.4311 10.137 13.4311 9.22726C13.4311 8.31746 13.0697 7.44493 12.4263 6.80161C11.783 6.15829 10.9105 5.79688 10.0007 5.79688C9.0909 5.79688 8.21837 6.15829 7.57505 6.80161C6.93173 7.44493 6.57031 8.31746 6.57031 9.22726V9.22726Z" stroke="white" stroke-width="1.4" stroke-linecap="round" stroke-linejoin="round"/>
</svg>
