<svg width="20" height="20" viewBox="0 0 20 20" fill="none" xmlns="http://www.w3.org/2000/svg">
<path d="M2 6.5C2 3.99238 3.71351 2.5 5.5 2.5C7.40609 2.5 8.7537 4.08211 10 5.32843C11.2463 4.08211 12.5939 2.5 14.5 2.5C16.3158 2.5 18 3.98356 18 6.5C18 7.6222 17.7639 8.6501 17.3509 9.6019L19.1856 10.3981C19.7005 9.2114 20 7.9135 20 6.5C20 2.99592 17.5337 0.5 14.5 0.5C12.5905 0.5 11.1464 1.4848 10 2.52802C8.8536 1.4848 7.40952 0.5 5.5 0.5C2.50355 0.5 0 2.99623 0 6.5C0 9.5199 1.36207 11.9702 3.20346 13.945C5.03313 15.9073 7.38528 17.455 9.4916 18.6985L10.5084 16.9762C8.441 15.7557 6.29313 14.3259 4.66623 12.5811C3.05106 10.8489 2 8.8626 2 6.5ZM17 14.5V11.5H15V14.5H12V16.5H14.999L15 19.5H17L16.999 16.5H20V14.5H17Z" fill="#FF8D06"/>
</svg>
