<svg width="20" height="20" viewBox="0 0 20 20" fill="none" xmlns="http://www.w3.org/2000/svg">
<path d="M12.2519 17.3851L12.261 17.3915C13.0481 17.8926 13.9825 18.1102 14.91 18.0084C15.8374 17.9065 16.7024 17.4913 17.3619 16.8313L17.9349 16.2584C18.0618 16.1315 18.1626 15.9808 18.2313 15.815C18.3 15.6492 18.3354 15.4714 18.3354 15.2919C18.3354 15.1124 18.3 14.9347 18.2313 14.7688C18.1626 14.603 18.0618 14.4524 17.9349 14.3255L15.5183 11.9107C15.3914 11.7838 15.2408 11.683 15.0749 11.6143C14.9091 11.5456 14.7314 11.5102 14.5519 11.5102C14.3724 11.5102 14.1946 11.5456 14.0288 11.6143C13.863 11.683 13.7123 11.7838 13.5854 11.9107C13.3292 12.1669 12.9817 12.3108 12.6194 12.3108C12.2571 12.3108 11.9097 12.1669 11.6535 11.9107L7.7895 8.04586C7.53336 7.78963 7.38946 7.44217 7.38946 7.07987C7.38946 6.71757 7.53336 6.3701 7.7895 6.11388C7.91647 5.987 8.01719 5.83633 8.08591 5.67051C8.15463 5.50468 8.19 5.32694 8.19 5.14744C8.19 4.96794 8.15463 4.79019 8.08591 4.62437C8.01719 4.45854 7.91647 4.30788 7.7895 4.18099L5.37385 1.76625C5.11763 1.51011 4.77016 1.36621 4.40786 1.36621C4.04556 1.36621 3.69809 1.51011 3.44187 1.76625L2.86802 2.33919C2.20817 2.99883 1.79311 3.86385 1.69142 4.79131C1.58973 5.71878 1.80749 6.65318 2.30874 7.44012L2.3142 7.44923C4.96139 11.3658 8.33483 14.7386 12.2519 17.3851V17.3851Z" stroke="white" stroke-width="1.4" stroke-linecap="round" stroke-linejoin="round"/>
</svg>
