<svg width="24" height="25" viewBox="0 0 24 25" fill="none" xmlns="http://www.w3.org/2000/svg">
<path d="M13.6851 5.75H13.7151C13.914 5.75 14.1047 5.82902 14.2454 5.96967C14.386 6.11032 14.4651 6.30109 14.4651 6.5C14.4651 6.69891 14.386 6.88968 14.2454 7.03033C14.1047 7.17098 13.914 7.25 13.7151 7.25C12.4231 7.25 11.4401 7.25 10.6571 7.313C9.87206 7.376 9.37406 7.496 9.02106 7.684C8.2899 8.08028 7.70288 8.69775 7.34406 9.448C7.15406 9.842 7.04006 10.328 6.98106 11.086C6.92106 11.85 6.92106 12.824 6.92106 14.18V14.29L8.04106 13.17C8.18323 13.0375 8.37128 12.9654 8.56558 12.9688C8.75988 12.9723 8.94526 13.051 9.08268 13.1884C9.22009 13.3258 9.2988 13.5112 9.30223 13.7055C9.30566 13.8998 9.23354 14.0878 9.10106 14.23L6.70106 16.63C6.6292 16.7018 6.5435 16.7583 6.44917 16.796C6.35483 16.8336 6.25382 16.8518 6.15227 16.8493C6.05071 16.8467 5.95073 16.8236 5.85839 16.7813C5.76604 16.7389 5.68326 16.6783 5.61506 16.603L3.44406 14.203C3.31649 14.0547 3.25193 13.8623 3.26416 13.6671C3.2764 13.4718 3.36445 13.2891 3.50954 13.1578C3.65462 13.0265 3.84526 12.9572 4.04077 12.9645C4.23628 12.9718 4.4212 13.0553 4.55606 13.197L5.42106 14.153V14.148C5.42106 12.831 5.42106 11.798 5.48606 10.969C5.55206 10.125 5.68806 9.427 5.99506 8.793C6.4922 7.75829 7.30392 6.90736 8.31406 6.362C8.93906 6.027 9.68406 5.886 10.5381 5.818C11.3881 5.75 12.4291 5.75 13.6851 5.75Z" fill="white"/>
<path d="M10.2798 19.5996L10.2498 19.5996C10.0509 19.5996 9.86011 19.5206 9.71946 19.3799C9.57881 19.2393 9.49979 19.0485 9.49979 18.8496C9.49979 18.6507 9.57881 18.4599 9.71946 18.3193C9.86011 18.1786 10.0509 18.0996 10.2498 18.0996C11.5418 18.0996 12.5248 18.0996 13.3078 18.0366C14.0928 17.9736 14.5908 17.8536 14.9438 17.6656C15.6749 17.2693 16.262 16.6519 16.6208 15.9016C16.8108 15.5076 16.9248 15.0216 16.9838 14.2636C17.0438 13.4996 17.0438 12.5256 17.0438 11.1696L17.0438 11.0596L15.9238 12.1796C15.7816 12.3121 15.5936 12.3842 15.3993 12.3808C15.205 12.3774 15.0196 12.2986 14.8822 12.1612C14.7448 12.0238 14.666 11.8384 14.6626 11.6441C14.6592 11.4498 14.7313 11.2618 14.8638 11.1196L17.2638 8.71961C17.3356 8.6478 17.4213 8.59134 17.5157 8.55365C17.61 8.51596 17.711 8.49783 17.8126 8.50035C17.9141 8.50288 18.0141 8.52601 18.1065 8.56834C18.1988 8.61067 18.2816 8.67132 18.3498 8.74661L20.5208 11.1466C20.6484 11.2949 20.7129 11.4873 20.7007 11.6825C20.6884 11.8778 20.6004 12.0606 20.4553 12.1918C20.3102 12.3231 20.1196 12.3924 19.9241 12.3851C19.7286 12.3778 19.5436 12.2944 19.4088 12.1526L18.5438 11.1966L18.5438 11.2016C18.5438 12.5186 18.5438 13.5516 18.4788 14.3806C18.4128 15.2246 18.2768 15.9226 17.9698 16.5566C17.4726 17.5913 16.6609 18.4423 15.6508 18.9876C15.0258 19.3226 14.2808 19.4636 13.4268 19.5316C12.5768 19.5996 11.5358 19.5996 10.2798 19.5996Z" fill="#9F9F9F"/>
</svg>
