<svg width="17" height="28" viewBox="0 0 17 28" fill="none" xmlns="http://www.w3.org/2000/svg">
<path fill-rule="evenodd" clip-rule="evenodd" d="M8.4996 1.95866C8.31174 1.95866 8.13157 2.03329 7.99873 2.16612C7.86589 2.29896 7.79127 2.47913 7.79127 2.66699V4.79199H7.08293C6.43179 4.79199 5.78703 4.92024 5.18546 5.16942C4.58389 5.4186 4.03729 5.78383 3.57686 6.24425C3.11644 6.70468 2.75121 7.25128 2.50203 7.85285C2.25285 8.45443 2.1246 9.09919 2.1246 9.75033C2.1246 10.4015 2.25285 11.0462 2.50203 11.6478C2.75121 12.2494 3.11644 12.796 3.57686 13.2564C4.03729 13.7168 4.58389 14.082 5.18546 14.3312C5.78703 14.5804 6.43179 14.7087 7.08293 14.7087H7.79127V21.792H7.08293C6.35033 21.7923 5.63566 21.5654 5.03738 21.1426C4.43911 20.7198 3.98668 20.1218 3.74243 19.4311C3.71343 19.341 3.66664 19.2575 3.60482 19.1858C3.54301 19.114 3.46744 19.0554 3.38257 19.0133C3.2977 18.9713 3.20527 18.9467 3.11073 18.941C3.01619 18.9353 2.92147 18.9486 2.83216 18.9802C2.74286 19.0117 2.6608 19.0609 2.59082 19.1247C2.52084 19.1885 2.46437 19.2657 2.42475 19.3517C2.38513 19.4378 2.36317 19.5309 2.36016 19.6255C2.35715 19.7202 2.37315 19.8145 2.40722 19.9029C2.74902 20.8698 3.38223 21.7069 4.21962 22.299C5.05702 22.891 6.05739 23.2088 7.08293 23.2087H7.79127V25.3337C7.79127 25.5215 7.86589 25.7017 7.99873 25.8345C8.13157 25.9674 8.31174 26.042 8.4996 26.042C8.68746 26.042 8.86763 25.9674 9.00047 25.8345C9.13331 25.7017 9.20793 25.5215 9.20793 25.3337V23.2087H9.91627C11.2313 23.2087 12.4925 22.6863 13.4223 21.7564C14.3522 20.8265 14.8746 19.5654 14.8746 18.2503C14.8746 16.9353 14.3522 15.6741 13.4223 14.7443C12.4925 13.8144 11.2313 13.292 9.91627 13.292H9.20793V6.20866H9.91627C10.6489 6.20835 11.3635 6.43525 11.9618 6.85807C12.5601 7.2809 13.0125 7.87884 13.2568 8.56953C13.2858 8.65969 13.3326 8.74312 13.3944 8.81488C13.4562 8.88664 13.5318 8.94528 13.6166 8.98732C13.7015 9.02937 13.7939 9.05396 13.8885 9.05966C13.983 9.06535 14.0777 9.05203 14.167 9.02048C14.2563 8.98893 14.3384 8.93979 14.4084 8.87597C14.4784 8.81214 14.5348 8.73494 14.5744 8.64891C14.6141 8.56288 14.636 8.46979 14.639 8.37512C14.6421 8.28046 14.626 8.18615 14.592 8.09778C14.2502 7.13087 13.617 6.29373 12.7796 5.70169C11.9422 5.10964 10.9418 4.79181 9.91627 4.79199H9.20793V2.66699C9.20793 2.47913 9.13331 2.29896 9.00047 2.16612C8.86763 2.03329 8.68746 1.95866 8.4996 1.95866ZM6.3746 2.66699C6.3746 2.10341 6.59848 1.56291 6.997 1.16439C7.39551 0.765876 7.93601 0.541992 8.4996 0.541992C9.06318 0.541992 9.60369 0.765876 10.0022 1.16439C10.4007 1.56291 10.6246 2.10341 10.6246 2.66699V3.41428C11.8146 3.54796 12.943 4.01375 13.8808 4.75842C14.8186 5.50308 15.528 6.49656 15.9279 7.62533C16.0209 7.88843 16.0612 8.16728 16.0464 8.44596C16.0317 8.72463 15.9622 8.99767 15.8419 9.24949C15.7217 9.50131 15.553 9.72698 15.3455 9.9136C15.138 10.1002 14.8958 10.2442 14.6327 10.3372C14.3696 10.4302 14.0907 10.4705 13.8121 10.4557C13.5334 10.441 13.2604 10.3715 13.0085 10.2512C12.7567 10.131 12.5311 9.96227 12.3444 9.75479C12.1578 9.54731 12.0139 9.3051 11.9208 9.04199C11.8152 8.74288 11.644 8.4712 11.4197 8.2469C11.1954 8.0226 10.9237 7.85136 10.6246 7.74574V11.9143C12.1828 12.0889 13.6221 12.8316 14.6672 14.0005C15.7124 15.1693 16.2902 16.6823 16.2902 18.2503C16.2902 19.8183 15.7124 21.3313 14.6672 22.5002C13.6221 23.669 12.1828 24.4117 10.6246 24.5864V25.3337C10.6246 25.8972 10.4007 26.4377 10.0022 26.8363C9.60369 27.2348 9.06318 27.4587 8.4996 27.4587C7.93601 27.4587 7.39551 27.2348 6.997 26.8363C6.59848 26.4377 6.3746 25.8972 6.3746 25.3337V24.5864C5.18458 24.4527 4.05619 23.9869 3.11838 23.2422C2.18057 22.4976 1.47118 21.5041 1.07131 20.3753C0.978288 20.1122 0.938001 19.8334 0.952749 19.5547C0.967496 19.276 1.03699 19.003 1.15726 18.7512C1.40015 18.2426 1.83513 17.8513 2.3665 17.6635C2.89786 17.4756 3.48209 17.5065 3.99066 17.7494C4.49924 17.9923 4.89049 18.4273 5.07835 18.9587C5.18396 19.2578 5.3552 19.5294 5.57951 19.7537C5.80381 19.9781 6.07548 20.1493 6.3746 20.2549V16.0864C4.81637 15.9117 3.37713 15.169 2.33196 14.0002C1.28679 12.8313 0.708984 11.3183 0.708984 9.75033C0.708984 8.18234 1.28679 6.66933 2.33196 5.50048C3.37713 4.33163 4.81637 3.58892 6.3746 3.41428V2.66699ZM3.54127 9.75033C3.54127 8.81102 3.9144 7.91018 4.5786 7.24599C5.24279 6.5818 6.14362 6.20866 7.08293 6.20866H7.79127V13.292H7.08293C6.14362 13.292 5.24279 12.9189 4.5786 12.2547C3.9144 11.5905 3.54127 10.6896 3.54127 9.75033ZM6.3746 7.74574C5.95985 7.89209 5.6007 8.16347 5.34666 8.5225C5.09262 8.88153 4.9562 9.31051 4.9562 9.75033C4.9562 10.1901 5.09262 10.6191 5.34666 10.9782C5.6007 11.3372 5.95985 11.6086 6.3746 11.7549V7.74574ZM9.20793 14.7087H9.91627C10.8556 14.7087 11.7564 15.0818 12.4206 15.746C13.0848 16.4102 13.4579 17.311 13.4579 18.2503C13.4579 19.1896 13.0848 20.0905 12.4206 20.7547C11.7564 21.4189 10.8556 21.792 9.91627 21.792H9.20793V14.7087ZM10.6246 16.2457V20.2549C11.0394 20.1086 11.3985 19.8372 11.6525 19.4781C11.9066 19.1191 12.043 18.6901 12.043 18.2503C12.043 17.8105 11.9066 17.3815 11.6525 17.0225C11.3985 16.6635 11.0394 16.3921 10.6246 16.2457Z" fill="#262626"/>
</svg>
