<svg width="28" height="23" viewBox="0 0 28 23" fill="none" xmlns="http://www.w3.org/2000/svg">
<g clip-path="url(#clip0_56_3544)">
<path d="M15.7027 3.52366C15.6098 3.44584 15.499 3.38398 15.3767 3.3417C15.2544 3.29941 15.1231 3.27753 14.9904 3.27734C14.8577 3.27716 14.7263 3.29866 14.6038 3.3406C14.4814 3.38254 14.3703 3.44409 14.2771 3.52164C14.1838 3.5992 14.1103 3.69122 14.0608 3.79234C14.0114 3.89346 13.9868 4.00166 13.9888 4.11064C13.9907 4.21962 14.019 4.32719 14.072 4.4271C14.125 4.527 14.2018 4.61724 14.2977 4.69255L21.6737 10.6799L3.99867 10.6799C3.73345 10.6799 3.4791 10.7665 3.29156 10.9205C3.10402 11.0746 2.99867 11.2835 2.99867 11.5014C2.99867 11.7192 3.10402 11.9282 3.29156 12.0822C3.4791 12.2363 3.73345 12.3228 3.99867 12.3228L21.6717 12.3228L14.2977 18.3077C14.1139 18.4616 14.0112 18.6687 14.0117 18.8843C14.0121 19.0998 14.1157 19.3066 14.3001 19.46C14.4845 19.6134 14.7348 19.7011 14.9972 19.7042C15.2596 19.7073 15.513 19.6256 15.7027 19.4766L24.6317 12.2308C24.7493 12.1353 24.8427 12.0216 24.9064 11.8962C24.9701 11.7709 25.0029 11.6364 25.0029 11.5006C25.0029 11.3647 24.9701 11.2302 24.9064 11.1049C24.8427 10.9795 24.7493 10.8658 24.6317 10.7703L15.7027 3.52366Z" fill="#262626"/>
<rect x="7.53809" y="13.9072" width="5.34884" height="3.76923" transform="rotate(-90 7.53809 13.9072)" fill="white"/>
</g>
<defs>
<clipPath id="clip0_56_3544">
<rect width="23" height="28" fill="white" transform="translate(28) rotate(90)"/>
</clipPath>
</defs>
</svg>
