<svg width="35" height="35" viewBox="0 0 35 35" fill="none" xmlns="http://www.w3.org/2000/svg">
<g clip-path="url(#clip0_56_3373)">
<path d="M33.8174 5.3661C22.9141 2.82996 12.0107 8.47645 1.10059 5.93348C0.492188 5.79676 0 6.14539 0 6.75379V28.246C0 28.8544 0.492188 29.4901 1.10059 29.6337C12.0039 32.1698 22.9072 26.5233 33.8174 29.0663C34.4258 29.2098 34.918 28.8612 34.918 28.2528V6.76063C34.918 6.14539 34.4258 5.50965 33.8174 5.3661Z" fill="#0B67B2"/>
<path d="M34.918 6.75391C34.918 6.14551 34.4258 5.50977 33.8174 5.36621C33.749 5.35254 33.6738 5.33203 33.6055 5.31836L21.458 12.7148V5.11328C18.792 5.43457 16.126 5.87207 13.46 6.19336V12.6328L3.07617 6.30957C2.41992 6.21387 1.76367 6.09082 1.10059 5.93359C0.492188 5.79688 0 6.14551 0 6.75391V8.17578L8.75 13.501H0V21.499H9.15332L0 27.0703V28.2461C0 28.8545 0.492188 29.4902 1.10059 29.6338C1.30566 29.6816 1.51074 29.7227 1.70898 29.7637L13.4531 22.6064V29.8799C16.1191 29.5586 18.7852 29.1211 21.4512 28.7998V22.5176L31.4932 28.6426C32.2656 28.7451 33.0381 28.8818 33.8105 29.0664C34.4189 29.21 34.9111 28.8613 34.9111 28.2529V26.9951L25.8945 21.5059H34.9111V13.5078H26.2979L34.9111 8.26465C34.918 7.75195 34.918 7.25293 34.918 6.75391Z" fill="#FF473E"/>
<path d="M28.2256 22.1143L34.918 26.1885V27.7881L25.6006 22.1143H22.0938L33.3252 28.957C32.1904 28.7178 31.0488 28.5674 29.9141 28.4785L22.0732 23.707V28.7383C21.6631 28.7861 21.2529 28.834 20.8428 28.8887V20.8906H34.918V22.1211H28.2256V22.1143ZM12.8447 29.9619C13.2549 29.9141 13.665 29.8662 14.0752 29.8115V20.8838H0V22.1143H6.8291L0 26.2705V27.8701L9.4541 22.1143H12.8447V22.1826L0.799805 29.5176C0.895508 29.5654 0.998047 29.6064 1.10059 29.6338C1.64062 29.7568 2.18066 29.8662 2.7207 29.9551L12.8447 23.7891V29.9619ZM0 12.8857V14.1162H14.0752V6.11816C13.665 6.17285 13.2549 6.2207 12.8447 6.26855V11.4639L4.69629 6.50098C3.52051 6.39844 2.34473 6.22754 1.16895 5.9541L12.5508 12.8857H9.04395L0 7.37598V8.97559L6.42578 12.8857H0ZM22.0732 5.03809C21.6631 5.08594 21.2529 5.13379 20.8428 5.18848V14.1162H34.918V12.8857H28.6289L34.918 9.05762V7.45801L26.0039 12.8857H22.4971L34.3711 5.65332C34.207 5.5166 34.0225 5.41406 33.8174 5.36621C33.4141 5.27051 33.0176 5.19531 32.6143 5.12012L22.0732 11.5391V5.03809Z" fill="#E8E8E8"/>
</g>
<defs>
<clipPath id="clip0_56_3373">
<rect width="35" height="35" fill="white"/>
</clipPath>
</defs>
</svg>
