<svg width="19" height="19" viewBox="0 0 19 19" fill="none" xmlns="http://www.w3.org/2000/svg">
<path fill-rule="evenodd" clip-rule="evenodd" d="M0.849609 9.39453C0.849609 5.79939 0.849609 4.00182 1.7063 2.70708C2.08886 2.12892 2.584 1.63378 3.16216 1.25122C4.4569 0.394531 6.25447 0.394531 9.84961 0.394531C13.4447 0.394531 15.2423 0.394531 16.5371 1.25122C17.1152 1.63378 17.6104 2.12892 17.9929 2.70708C18.8496 4.00182 18.8496 5.79939 18.8496 9.39453C18.8496 12.9897 18.8496 14.7872 17.9929 16.082C17.6104 16.6601 17.1152 17.1553 16.5371 17.5378C15.2423 18.3945 13.4447 18.3945 9.84961 18.3945C6.25447 18.3945 4.4569 18.3945 3.16216 17.5378C2.584 17.1553 2.08886 16.6601 1.7063 16.082C0.849609 14.7872 0.849609 12.9897 0.849609 9.39453ZM14.5092 9.39458C14.5092 11.9679 12.4231 14.054 9.84981 14.054C7.27649 14.054 5.1904 11.9679 5.1904 9.39458C5.1904 6.82125 7.27649 4.73517 9.84981 4.73517C12.4231 4.73517 14.5092 6.82125 14.5092 9.39458ZM9.84981 12.4776C11.5525 12.4776 12.9328 11.0973 12.9328 9.39458C12.9328 7.69188 11.5525 6.31157 9.84981 6.31157C8.14712 6.31157 6.76681 7.69188 6.76681 9.39458C6.76681 11.0973 8.14712 12.4776 9.84981 12.4776ZM14.6932 5.5959C15.2979 5.5959 15.7881 5.10573 15.7881 4.50107C15.7881 3.89642 15.2979 3.40625 14.6932 3.40625C14.0886 3.40625 13.5984 3.89642 13.5984 4.50107C13.5984 5.10573 14.0886 5.5959 14.6932 5.5959Z" fill="#A4A4A4"/>
</svg>
