<svg width="19" height="18" viewBox="0 0 19 18" fill="none" xmlns="http://www.w3.org/2000/svg">
<path d="M0.849609 2.31458C0.849609 1.73737 1.05232 1.26118 1.45772 0.886013C1.86312 0.510827 2.39016 0.323242 3.0388 0.323242C3.67587 0.323242 4.1913 0.507935 4.58513 0.877355C4.99053 1.25831 5.19324 1.75469 5.19324 2.36653C5.19324 2.92064 4.99633 3.38239 4.6025 3.75181C4.19711 4.13276 3.66428 4.32324 3.00405 4.32324H2.98668C2.3496 4.32324 1.83417 4.13276 1.44034 3.75181C1.04651 3.37086 0.849609 2.89178 0.849609 2.31458ZM1.07548 17.4661V5.899H4.93262V17.4661H1.07548ZM7.06969 17.4661H10.9268V11.0072C10.9268 10.6032 10.9732 10.2915 11.0658 10.0722C11.228 9.67965 11.4741 9.34776 11.8042 9.07649C12.1344 8.8052 12.5484 8.66956 13.0465 8.66956C14.3438 8.66956 14.9925 9.54113 14.9925 11.2843V17.4661H18.8496V10.8341C18.8496 9.12554 18.4442 7.82973 17.6334 6.94662C16.8226 6.0635 15.7512 5.62194 14.4191 5.62194C12.9249 5.62194 11.7608 6.26263 10.9268 7.54402V7.57865H10.9095L10.9268 7.54402V5.899H7.06969C7.09285 6.2684 7.10444 7.41702 7.10444 9.34488C7.10444 11.2727 7.09285 13.9798 7.06969 17.4661Z" fill="#A4A4A4"/>
</svg>
