<svg width="84" height="84" viewBox="0 0 84 84" fill="none" xmlns="http://www.w3.org/2000/svg">
<path d="M11.0637 15.6409C19.5475 7.15704 33.0648 6.77449 42.0026 14.4932C50.9346 6.77449 64.4519 7.15704 72.9356 15.6409C81.4042 24.1095 81.8004 37.5937 74.1245 46.5317L46.9495 73.8005C44.3399 76.4098 40.1829 76.5285 37.433 74.1562L37.0501 73.8005L9.87469 46.5317C2.19874 37.5937 2.59508 24.1095 11.0637 15.6409ZM16.0134 20.5906C10.0384 26.5656 9.86773 36.1468 15.5013 42.3282L16.0134 42.8644L41.9998 68.8505L60.5589 50.2865L48.1867 37.9147L44.4746 41.6271C40.374 45.7274 33.7258 45.7274 29.6253 41.6271C25.5248 37.5265 25.5248 30.8783 29.6253 26.7778L36.9794 19.419C30.985 14.6202 22.2974 14.84 16.5499 20.0784L16.0134 20.5906ZM45.7119 30.4901C47.0786 29.1233 49.2948 29.1233 50.6616 30.4901L65.5086 45.3368L67.9859 42.8644C74.1364 36.7138 74.1364 26.7414 67.9859 20.5906C62.0107 14.6156 52.4294 14.4449 46.2484 20.0784L45.7119 20.5906L34.575 31.7275C33.3058 32.9967 33.2151 34.9982 34.303 36.3719L34.575 36.6774C35.8443 37.9465 37.8456 38.0372 39.2194 36.9494L39.5249 36.6774L45.7119 30.4901Z" fill="#FF8D06"/>
</svg>
