<svg width="84" height="84" viewBox="0 0 84 84" fill="none" xmlns="http://www.w3.org/2000/svg">
<path d="M20.9932 10.5C33.2075 10.5 43.3342 19.4383 45.1892 31.1307C49.302 27.0336 54.9766 24.5 61.243 24.5H76.993V33.25C76.993 45.8147 66.8076 56 54.243 56H45.493V73.5H38.493V45.5H31.4932C17.9622 45.5 6.99316 34.531 6.99316 21V10.5H20.9932ZM69.993 31.5H61.243C52.5448 31.5 45.493 38.5514 45.493 47.25V49H54.243C62.9415 49 69.993 41.9486 69.993 33.25V31.5ZM20.9932 17.5H13.9932V21C13.9932 30.665 21.8282 38.5 31.4932 38.5H38.493V35C38.493 25.335 30.6581 17.5 20.9932 17.5Z" fill="#FF8D06"/>
</svg>
