<svg width="84" height="84" viewBox="0 0 84 84" fill="none" xmlns="http://www.w3.org/2000/svg">
<path d="M67.3491 16.6508C72.4675 21.7798 74.3914 28.8752 73.1234 35.4788C75.1149 36.0402 76.9954 37.1007 78.5648 38.6586C83.4785 43.5365 83.4785 51.4455 78.5648 56.3234L59.5 75.25L48.923 64.75L38.4996 75.1975L8.82483 45.4755C1.45967 37.2295 1.73497 24.5665 9.65076 16.6508C17.5755 8.72603 30.2582 8.45905 38.5035 15.8499C46.725 8.47 59.43 8.715 67.3491 16.6508ZM45.367 43.6261C43.211 45.7664 43.211 49.2153 45.367 51.3555L59.5 65.3863L73.633 51.3555C75.789 49.2153 75.789 45.7664 73.633 43.6261C71.449 41.4579 67.8867 41.4579 65.695 43.6338L59.4926 49.7721L54.5685 44.8875L53.2973 43.6261C51.1133 41.4579 47.551 41.4579 45.367 43.6261ZM14.6005 21.6005C9.38641 26.8146 9.12464 35.1656 13.9298 40.6812L38.4996 65.2901L43.9565 59.822L40.4352 56.3234C35.5215 51.4455 35.5215 43.5365 40.4352 38.6586C45.3488 33.7805 53.3155 33.7805 58.2291 38.6586L59.4986 39.9179L60.7708 38.6586C62.2569 37.1833 64.0223 36.154 65.898 35.5712C67.3526 30.7852 66.1703 25.3793 62.3945 21.5954C57.1476 16.3378 48.6766 16.1245 43.1795 21.059L38.5066 25.2533L33.8312 21.0623C28.3184 16.1209 19.8627 16.3383 14.6005 21.6005Z" fill="#FF8D06"/>
</svg>
