<svg width="84" height="84" viewBox="0 0 84 84" fill="none" xmlns="http://www.w3.org/2000/svg">
<path d="M7 41.9993C7 38.9735 7.38395 36.0374 8.10582 33.2371C11.9218 33.4349 15.7097 31.5355 17.7513 27.9994C19.7913 24.4659 19.5442 20.2395 17.4692 17.0345C21.6424 12.9335 26.8391 9.87076 32.6411 8.26465C34.3777 11.6685 37.9165 13.9994 42 13.9994C46.0835 13.9994 49.6223 11.6685 51.359 8.26465C57.1609 9.87076 62.3578 12.9335 66.5308 17.0345C64.4557 20.2395 64.2085 24.4659 66.2487 27.9994C68.2902 31.5355 72.0783 33.4349 75.8943 33.2371C76.616 36.0374 77 38.9735 77 41.9993C77 45.025 76.616 47.9612 75.8943 50.7615C72.0783 50.5638 68.2902 52.4632 66.2487 55.9993C64.2085 59.5329 64.4557 63.7591 66.5308 66.9641C62.3578 71.065 57.1609 74.1279 51.359 75.734C49.6223 72.3303 46.0835 69.9993 42 69.9993C37.9165 69.9993 34.3777 72.3303 32.6411 75.734C26.8391 74.1279 21.6424 71.065 17.4692 66.9641C19.5442 63.7591 19.7913 59.5329 17.7513 55.9993C15.7097 52.4632 11.9218 50.5638 8.10582 50.7615C7.38395 47.9612 7 45.025 7 41.9993ZM23.8135 52.4993C26.0188 56.3192 26.651 60.7106 25.7886 64.8326C27.2159 65.8483 28.7352 66.7282 30.3271 67.4593C33.4662 64.6492 37.5872 62.9993 42 62.9993C46.4128 62.9993 50.5337 64.6492 53.6729 67.4593C55.2647 66.7282 56.784 65.8483 58.2113 64.8326C57.3489 60.7106 57.981 56.3192 60.1867 52.4993C62.3917 48.6797 65.8787 45.9368 69.8792 44.6225C69.9594 43.7552 70 42.8806 70 41.9993C70 41.1183 69.9594 40.2433 69.8792 39.3764C65.8787 38.0621 62.3917 35.3192 60.1867 31.4994C57.981 27.6796 57.3489 23.2882 58.2113 19.1662C56.784 18.1506 55.2647 17.2706 53.6729 16.5393C50.5337 19.3495 46.4128 20.9994 42 20.9994C37.5872 20.9994 33.4662 19.3495 30.3271 16.5393C28.7352 17.2706 27.2159 18.1506 25.7886 19.1662C26.651 23.2882 26.0188 27.6796 23.8135 31.4994C21.6082 35.3192 18.1214 38.0621 14.1208 39.3764C14.0405 40.2433 14 41.1183 14 41.9993C14 42.8806 14.0405 43.7552 14.1208 44.6225C18.1214 45.9368 21.6082 48.6797 23.8135 52.4993ZM42 52.4993C36.2008 52.4993 31.5 47.7984 31.5 41.9993C31.5 36.2005 36.2008 31.4994 42 31.4994C47.7992 31.4994 52.5 36.2005 52.5 41.9993C52.5 47.7984 47.7992 52.4993 42 52.4993ZM42 45.4993C43.933 45.4993 45.5 43.9323 45.5 41.9993C45.5 40.0662 43.933 38.4993 42 38.4993C40.067 38.4993 38.5 40.0662 38.5 41.9993C38.5 43.9323 40.067 45.4993 42 45.4993Z" fill="#FF8D06"/>
</svg>
