<svg width="84" height="84" viewBox="0 0 84 84" fill="none" xmlns="http://www.w3.org/2000/svg">
<path d="M10.5 64.75V17.5C10.5 11.701 15.201 7 21 7H70C71.933 7 73.5 8.56702 73.5 10.5V73.5C73.5 75.4331 71.933 77 70 77H22.75C15.9845 77 10.5 71.5155 10.5 64.75ZM66.5 70V59.5H22.75C19.8505 59.5 17.5 61.8506 17.5 64.75C17.5 67.6494 19.8505 70 22.75 70H66.5ZM35 14H21C19.067 14 17.5 15.567 17.5 17.5V53.6788C19.0912 52.9228 20.8712 52.5 22.75 52.5H66.5V14H59.5V42L47.25 35L35 42V14Z" fill="#FF8D06"/>
</svg>
