<svg width="24" height="24" viewBox="0 0 24 24" fill="none" xmlns="http://www.w3.org/2000/svg">
<path d="M13.6841 5.25H13.7141C13.913 5.25 14.1038 5.32902 14.2444 5.46967C14.3851 5.61032 14.4641 5.80109 14.4641 6C14.4641 6.19891 14.3851 6.38968 14.2444 6.53033C14.1038 6.67098 13.913 6.75 13.7141 6.75C12.4221 6.75 11.4391 6.75 10.6561 6.813C9.87108 6.876 9.37308 6.996 9.02008 7.184C8.28892 7.58028 7.7019 8.19775 7.34308 8.948C7.15308 9.342 7.03908 9.828 6.98008 10.586C6.92008 11.35 6.92008 12.324 6.92008 13.68V13.79L8.04008 12.67C8.18225 12.5375 8.3703 12.4654 8.5646 12.4688C8.7589 12.4723 8.94429 12.551 9.0817 12.6884C9.21911 12.8258 9.29783 13.0112 9.30125 13.2055C9.30468 13.3998 9.23256 13.5878 9.10008 13.73L6.70008 16.13C6.62822 16.2018 6.54253 16.2583 6.44819 16.296C6.35386 16.3336 6.25285 16.3518 6.15129 16.3493C6.04974 16.3467 5.94976 16.3236 5.85741 16.2813C5.76506 16.2389 5.68228 16.1783 5.61408 16.103L3.44308 13.703C3.31551 13.5547 3.25095 13.3623 3.26319 13.1671C3.27542 12.9718 3.36347 12.7891 3.50856 12.6578C3.65365 12.5265 3.84428 12.4572 4.0398 12.4645C4.23531 12.4718 4.42022 12.5553 4.55508 12.697L5.42008 13.653V13.648C5.42008 12.331 5.42008 11.298 5.48508 10.469C5.55108 9.625 5.68708 8.927 5.99408 8.293C6.49122 7.25829 7.30295 6.40736 8.31308 5.862C8.93808 5.527 9.68308 5.386 10.5371 5.318C11.3871 5.25 12.4281 5.25 13.6841 5.25Z" fill="#262626"/>
<path opacity="0.5" d="M17.8472 7.64961C17.9489 7.65212 18.0491 7.67532 18.1416 7.71778C18.234 7.76025 18.3169 7.82109 18.3852 7.89661L20.5562 10.2966C20.6837 10.4449 20.7483 10.6373 20.736 10.8325C20.7238 11.0278 20.6358 11.2106 20.4907 11.3418C20.3456 11.4731 20.155 11.5424 19.9594 11.5351C19.7639 11.5278 19.579 11.4444 19.4442 11.3026L18.5782 10.3466V10.3516C18.5782 11.6686 18.5782 12.7016 18.5142 13.5306C18.4482 14.3746 18.3122 15.0726 18.0052 15.7066C17.508 16.7413 16.6963 17.5923 15.6862 18.1376C15.0612 18.4726 14.3162 18.6136 13.4622 18.6816C12.6122 18.7496 11.5712 18.7496 10.3152 18.7496H10.2852C10.0862 18.7496 9.89548 18.6706 9.75483 18.5299C9.61417 18.3893 9.53516 18.1985 9.53516 17.9996C9.53516 17.8007 9.61417 17.6099 9.75483 17.4693C9.89548 17.3286 10.0862 17.2496 10.2852 17.2496C11.5772 17.2496 12.5602 17.2496 13.3432 17.1866C14.1272 17.1236 14.6262 17.0036 14.9792 16.8146C15.7102 16.4186 16.2972 15.8015 16.6562 15.0516C16.8462 14.6576 16.9602 14.1716 17.0192 13.4146C17.0782 12.6496 17.0792 11.6746 17.0792 10.3196V10.2096L15.9592 11.3296C15.817 11.4621 15.6289 11.5342 15.4346 11.5308C15.2403 11.5274 15.0549 11.4486 14.9175 11.3112C14.7801 11.1738 14.7014 10.9884 14.698 10.7941C14.6946 10.5998 14.7667 10.4118 14.8992 10.2696L17.2992 7.86961C17.3709 7.79777 17.4564 7.74122 17.5506 7.70341C17.6448 7.66559 17.7457 7.64729 17.8472 7.64961Z" fill="#606060"/>
</svg>
