<svg width="17" height="18" viewBox="0 0 17 18" fill="none" xmlns="http://www.w3.org/2000/svg">
<path d="M12.94 2.82C12.2566 2.03953 11.8799 1.0374 11.88 0H8.79V12.4C8.76666 13.0712 8.48352 13.7071 8.00031 14.1735C7.51709 14.6399 6.8716 14.9004 6.2 14.9C4.78 14.9 3.6 13.74 3.6 12.3C3.6 10.58 5.26 9.29 6.97 9.82V6.66C3.52 6.2 0.5 8.88 0.5 12.3C0.5 15.63 3.26 18 6.19 18C9.33 18 11.88 15.45 11.88 12.3V6.01C13.133 6.90985 14.6374 7.39265 16.18 7.39V4.3C16.18 4.3 14.3 4.39 12.94 2.82Z" fill="#A4A4A4"/>
</svg>
